# xmcd
#
# Track frame offsets:
#	150
#	17850
#	33625
#	54565
#	79687
#	95860
#	114975
#	139080
#	148227
#	158737
#	170905
#	184052
#	209265
#	226110
#	259487
#	264702
#	283555
#	298502
#	316890
#	345780
#
# Disc length: 4737 seconds
# Revision: 4
# Processed by: cddbd v1.5.2PL0 Copyright (c) Steve Scherf et al.
# Submitted via: dBpowerAMP V12.0
#
DISCID=2c127f14
DTITLE=Terry Allen - Lubbock (On Everything)
DYEAR=1995
DGENRE=Country
TTITLE0=(01) Amarillo Highway
TTITLE1=(02) Highplains Jamboree
TTITLE2=(03) The Great Joe Bob (A Regional Tragedy)
TTITLE3=(04) The Wolfman Of Del Rio
TTITLE4=(05) Lubbock Woman
TTITLE5=(06) The Girl Who Danced Oklahoma
TTITLE6=(07) Truckload Of Art
TTITLE7=(08) The Collector (And The Art Mob)
TTITLE8=(09) Oui (A French Song)
TTITLE9=(10) Rendevouz USA
TTITLE10=(11) Cocktails For Three
TTITLE11=(12) The Beautiful Waitress
TTITLE12=(13) Blue Asian Reds
TTITLE13=(14) New Delhi Freight Train
TTITLE14=(15) FFA
TTITLE15=(16) Flatland Farmer
TTITLE16=(17) My Amigo
TTITLE17=(18) The Pink And Black Song
TTITLE18=(19) The Thirty Years Waltz
TTITLE19=(20) I Just Left Myself
EXTD=
EXTT0=
EXTT1=
EXTT2=
EXTT3=
EXTT4=
EXTT5=
EXTT6=
EXTT7=
EXTT8=
EXTT9=
EXTT10=
EXTT11=
EXTT12=
EXTT13=
EXTT14=
EXTT15=
EXTT16=
EXTT17=
EXTT18=
EXTT19=
PLAYORDER=
